<svg width="1853" height="527" viewBox="0 0 1853 527" fill="none" xmlns="http://www.w3.org/2000/svg">
<path d="M92.0848 3.38508L9.08479 86.3851C-1.71521 93.9853 -0.0818751 104.885 2.08479 109.385L65.5848 347.885C69.5848 358.685 75.5848 354.051 78.0848 350.385L146.085 181.885C151.285 174.285 155.918 178.718 157.585 181.885L176.085 259.385C176.085 262.585 177.751 261.718 178.585 260.885L301.585 140.385C307.185 136.385 307.585 130.051 307.085 127.385C304.751 118.051 299.785 98.0848 298.585 92.8848C297.385 87.6848 290.418 88.0514 287.085 88.8848C242.418 99.7181 152.085 121.785 148.085 123.385C144.085 124.985 142.751 122.718 142.585 121.385C133.751 89.2182 114.885 21.7851 110.085 9.38508C105.285 -3.01492 96.0848 0.218411 92.0848 3.38508Z" fill="currentColor"/>
<path d="M182.085 265.885L61.0848 384.385C53.4848 389.585 53.2515 396.885 54.0848 399.885L59.5848 423.385C61.5848 440.185 69.7515 440.051 73.5848 437.885C118.751 427.051 209.885 405.085 213.085 403.885C216.285 402.685 217.751 403.385 218.085 403.885C225.585 432.051 242.085 493.085 248.085 511.885C254.085 530.685 265.918 526.385 271.085 521.885L354.085 437.885C361.685 433.085 360.585 423.885 359.085 419.885C339.251 345.718 299.085 195.285 297.085 186.885C294.585 176.385 295.085 175.885 290.585 172.885C286.985 170.485 283.751 175.551 282.585 178.385C261.418 229.551 218.585 333.585 216.585 340.385C214.585 347.185 211.418 348.885 210.085 348.885C206.085 349.685 204.085 345.551 203.585 343.385L184.585 265.885C184.585 263.885 182.918 265.051 182.085 265.885Z" fill="currentColor"/>
<path d="M92.0848 3.38508L9.08479 86.3851C-1.71521 93.9853 -0.0818751 104.885 2.08479 109.385L65.5848 347.885C69.5848 358.685 75.5848 354.051 78.0848 350.385L146.085 181.885C151.285 174.285 155.918 178.718 157.585 181.885L176.085 259.385C176.085 262.585 177.751 261.718 178.585 260.885L301.585 140.385C307.185 136.385 307.585 130.051 307.085 127.385C304.751 118.051 299.785 98.0848 298.585 92.8848C297.385 87.6848 290.418 88.0514 287.085 88.8848C242.418 99.7181 152.085 121.785 148.085 123.385C144.085 124.985 142.751 122.718 142.585 121.385C133.751 89.2182 114.885 21.7851 110.085 9.38508C105.285 -3.01492 96.0848 0.218411 92.0848 3.38508Z" stroke="currentColor"/>
<path d="M182.085 265.885L61.0848 384.385C53.4848 389.585 53.2515 396.885 54.0848 399.885L59.5848 423.385C61.5848 440.185 69.7515 440.051 73.5848 437.885C118.751 427.051 209.885 405.085 213.085 403.885C216.285 402.685 217.751 403.385 218.085 403.885C225.585 432.051 242.085 493.085 248.085 511.885C254.085 530.685 265.918 526.385 271.085 521.885L354.085 437.885C361.685 433.085 360.585 423.885 359.085 419.885C339.251 345.718 299.085 195.285 297.085 186.885C294.585 176.385 295.085 175.885 290.585 172.885C286.985 170.485 283.751 175.551 282.585 178.385C261.418 229.551 218.585 333.585 216.585 340.385C214.585 347.185 211.418 348.885 210.085 348.885C206.085 349.685 204.085 345.551 203.585 343.385L184.585 265.885C184.585 263.885 182.918 265.051 182.085 265.885Z" stroke="currentColor"/>
<path d="M515.885 373.385V325.385L614.685 221.385H517.085V171.785H683.485V219.785L583.885 323.785H685.485V373.385H515.885Z" fill="currentColor"/>
<path d="M773.885 378.185C757.085 378.185 743.085 375.518 731.885 370.185C720.952 364.852 712.818 357.652 707.485 348.585C702.418 339.252 699.885 328.985 699.885 317.785C699.885 305.785 702.818 295.252 708.685 286.185C714.818 276.852 724.285 269.518 737.085 264.185C749.885 258.585 766.018 255.785 785.485 255.785H834.285C834.285 246.718 833.085 239.252 830.685 233.385C828.552 227.518 824.952 223.118 819.885 220.185C814.818 217.252 807.885 215.785 799.085 215.785C789.752 215.785 781.885 217.652 775.485 221.385C769.085 225.118 765.085 230.985 763.485 238.985H705.885C707.218 224.585 711.885 212.052 719.885 201.385C728.152 190.718 739.085 182.318 752.685 176.185C766.285 170.052 781.885 166.985 799.485 166.985C818.685 166.985 835.352 170.185 849.485 176.585C863.618 182.718 874.552 191.785 882.285 203.785C890.285 215.785 894.285 230.718 894.285 248.585V373.385H844.285L837.085 344.185C834.152 349.252 830.685 353.918 826.685 358.185C822.685 362.185 818.018 365.785 812.685 368.985C807.352 371.918 801.485 374.185 795.085 375.785C788.685 377.385 781.618 378.185 773.885 378.185ZM788.685 332.585C795.085 332.585 800.685 331.518 805.485 329.385C810.285 327.252 814.418 324.318 817.885 320.585C821.352 316.852 824.152 312.585 826.285 307.785C828.685 302.718 830.418 297.252 831.485 291.385V290.985H792.685C786.018 290.985 780.418 291.918 775.885 293.785C771.618 295.385 768.418 297.785 766.285 300.985C764.152 304.185 763.085 307.918 763.085 312.185C763.085 316.718 764.152 320.585 766.285 323.785C768.685 326.718 771.752 328.985 775.485 330.585C779.485 331.918 783.885 332.585 788.685 332.585Z" fill="currentColor"/>
<path d="M920.147 461.385V171.785H973.347L980.147 198.185C984.414 192.585 989.347 187.385 994.947 182.585C1000.55 177.785 1007.21 174.052 1014.95 171.385C1022.95 168.452 1032.28 166.985 1042.95 166.985C1061.61 166.985 1078.01 171.652 1092.15 180.985C1106.55 190.318 1118.01 202.985 1126.55 218.985C1135.08 234.718 1139.35 252.718 1139.35 272.985C1139.35 293.252 1134.95 311.385 1126.15 327.385C1117.61 343.118 1106.15 355.518 1091.75 364.585C1077.35 373.652 1061.21 378.185 1043.35 378.185C1028.95 378.185 1016.55 375.652 1006.15 370.585C995.747 365.518 987.081 358.452 980.147 349.385V461.385H920.147ZM1028.15 325.785C1037.75 325.785 1046.28 323.652 1053.75 319.385C1061.48 314.852 1067.48 308.585 1071.75 300.585C1076.01 292.585 1078.15 283.385 1078.15 272.985C1078.15 262.585 1076.01 253.385 1071.75 245.385C1067.48 237.385 1061.48 231.118 1053.75 226.585C1046.28 221.785 1037.75 219.385 1028.15 219.385C1018.28 219.385 1009.48 221.785 1001.75 226.585C994.281 231.118 988.414 237.385 984.147 245.385C979.881 253.385 977.747 262.452 977.747 272.585C977.747 282.985 979.881 292.185 984.147 300.185C988.414 308.185 994.281 314.452 1001.75 318.985C1009.48 323.518 1018.28 325.785 1028.15 325.785Z" fill="currentColor"/>
<path d="M1290.58 373.385V325.385H1154.58V277.385L1282.98 93.3849H1350.58V273.385H1385.38V325.385H1350.58V373.385H1290.58ZM1218.18 273.385H1294.58V159.385L1218.18 273.385Z" fill="currentColor"/>
<path d="M1518.62 378.185C1492.75 378.185 1470.62 372.052 1452.22 359.785C1433.82 347.518 1419.55 330.585 1409.42 308.985C1399.55 287.118 1394.62 261.918 1394.62 233.385C1394.62 204.852 1399.55 179.785 1409.42 158.185C1419.55 136.318 1433.82 119.252 1452.22 106.985C1470.62 94.7183 1492.75 88.585 1518.62 88.585C1544.48 88.585 1566.62 94.7183 1585.02 106.985C1603.42 119.252 1617.55 136.318 1627.42 158.185C1637.55 179.785 1642.62 204.852 1642.62 233.385C1642.62 261.918 1637.55 287.118 1627.42 308.985C1617.55 330.585 1603.42 347.518 1585.02 359.785C1566.62 372.052 1544.48 378.185 1518.62 378.185ZM1518.62 324.185C1531.15 324.185 1542.08 320.452 1551.42 312.985C1561.02 305.518 1568.35 295.118 1573.42 281.785C1578.75 268.185 1581.42 252.052 1581.42 233.385C1581.42 214.718 1578.75 198.718 1573.42 185.385C1568.35 171.785 1561.02 161.385 1551.42 154.185C1542.08 146.718 1531.15 142.985 1518.62 142.985C1506.08 142.985 1495.02 146.718 1485.42 154.185C1476.08 161.385 1468.75 171.785 1463.42 185.385C1458.35 198.718 1455.82 214.718 1455.82 233.385C1455.82 252.052 1458.35 268.185 1463.42 281.785C1468.75 295.118 1476.08 305.518 1485.42 312.985C1495.02 320.452 1506.08 324.185 1518.62 324.185Z" fill="currentColor"/>
<path d="M1654.62 373.385V328.985C1670.89 315.652 1686.89 302.452 1702.62 289.385C1718.62 276.318 1732.89 263.385 1745.42 250.585C1758.22 237.518 1768.35 224.852 1775.82 212.585C1783.29 200.052 1787.02 188.052 1787.02 176.585C1787.02 169.918 1785.69 163.785 1783.02 158.185C1780.62 152.318 1776.75 147.785 1771.42 144.585C1766.35 141.118 1759.55 139.385 1751.02 139.385C1742.75 139.385 1735.69 141.252 1729.82 144.985C1723.95 148.718 1719.55 153.918 1716.62 160.585C1713.69 166.985 1712.22 174.452 1712.22 182.985H1654.22C1655.02 161.652 1659.82 143.918 1668.62 129.785C1677.42 115.652 1689.15 105.252 1703.82 98.585C1718.75 91.9183 1735.15 88.585 1753.02 88.585C1773.82 88.585 1791.15 92.4516 1805.02 100.185C1818.89 107.652 1829.29 117.785 1836.22 130.585C1843.42 143.118 1847.02 157.118 1847.02 172.585C1847.02 184.852 1844.89 196.718 1840.62 208.185C1836.35 219.385 1830.49 230.318 1823.02 240.985C1815.55 251.385 1807.02 261.518 1797.42 271.385C1788.09 280.985 1778.22 290.318 1767.82 299.385C1757.42 308.185 1747.15 316.585 1737.02 324.585H1852.62V373.385H1654.62Z" fill="currentColor"/>
</svg>